<mxfile host="app.diagrams.net" agent="Mozilla/5.0 (Windows NT 10.0; Win64; x64) AppleWebKit/537.36 (KHTML, like Gecko) Chrome/135.0.0.0 Safari/537.36" version="26.2.14">
  <diagram id="C5RBs43oDa-KdzZeNtuy" name="Page-1">
    <mxGraphModel dx="1148" dy="546" grid="1" gridSize="10" guides="1" tooltips="1" connect="1" arrows="1" fold="1" page="1" pageScale="1" pageWidth="827" pageHeight="1169" math="0" shadow="0">
      <root>
        <mxCell id="WIyWlLk6GJQsqaUBKTNV-0" />
        <mxCell id="WIyWlLk6GJQsqaUBKTNV-1" parent="WIyWlLk6GJQsqaUBKTNV-0" />
        <mxCell id="WIyWlLk6GJQsqaUBKTNV-3" value="Visualizza dashboard Admin" style="rounded=1;whiteSpace=wrap;html=1;fontSize=12;glass=0;strokeWidth=1;shadow=0;" parent="WIyWlLk6GJQsqaUBKTNV-1" vertex="1">
          <mxGeometry x="378" y="390" width="120" height="40" as="geometry" />
        </mxCell>
        <mxCell id="WIyWlLk6GJQsqaUBKTNV-5" value="No" style="edgeStyle=orthogonalEdgeStyle;rounded=0;html=1;jettySize=auto;orthogonalLoop=1;fontSize=11;endArrow=block;endFill=0;endSize=8;strokeWidth=1;shadow=0;labelBackgroundColor=none;entryX=1;entryY=0.5;entryDx=0;entryDy=0;exitX=1;exitY=0.5;exitDx=0;exitDy=0;" parent="WIyWlLk6GJQsqaUBKTNV-1" edge="1">
          <mxGeometry x="-0.1197" y="11" relative="1" as="geometry">
            <mxPoint as="offset" />
            <mxPoint x="451" y="205" as="targetPoint" />
            <Array as="points">
              <mxPoint x="551" y="300" />
              <mxPoint x="551" y="205" />
            </Array>
            <mxPoint x="487" y="299.9999999999999" as="sourcePoint" />
          </mxGeometry>
        </mxCell>
        <mxCell id="WIyWlLk6GJQsqaUBKTNV-6" value="Login Admin" style="rhombus;whiteSpace=wrap;html=1;shadow=0;fontFamily=Helvetica;fontSize=12;align=center;strokeWidth=1;spacing=6;spacingTop=-4;" parent="WIyWlLk6GJQsqaUBKTNV-1" vertex="1">
          <mxGeometry x="386" y="260" width="100" height="80" as="geometry" />
        </mxCell>
        <mxCell id="SCx97nsvygvDcEJ_W3Nr-0" value="" style="ellipse;whiteSpace=wrap;html=1;aspect=fixed;" parent="WIyWlLk6GJQsqaUBKTNV-1" vertex="1">
          <mxGeometry x="426" y="130" width="20" height="20" as="geometry" />
        </mxCell>
        <mxCell id="SCx97nsvygvDcEJ_W3Nr-3" value="" style="rounded=0;html=1;jettySize=auto;orthogonalLoop=1;fontSize=11;endArrow=block;endFill=0;endSize=8;strokeWidth=1;shadow=0;labelBackgroundColor=none;edgeStyle=orthogonalEdgeStyle;exitX=0.5;exitY=1;exitDx=0;exitDy=0;" parent="WIyWlLk6GJQsqaUBKTNV-1" source="SCx97nsvygvDcEJ_W3Nr-0" edge="1">
          <mxGeometry relative="1" as="geometry">
            <mxPoint x="446" y="245" as="sourcePoint" />
            <mxPoint x="436" y="190" as="targetPoint" />
          </mxGeometry>
        </mxCell>
        <mxCell id="SCx97nsvygvDcEJ_W3Nr-16" value="" style="rhombus;whiteSpace=wrap;html=1;" parent="WIyWlLk6GJQsqaUBKTNV-1" vertex="1">
          <mxGeometry x="421" y="190" width="30" height="30" as="geometry" />
        </mxCell>
        <mxCell id="SCx97nsvygvDcEJ_W3Nr-18" value="" style="rounded=0;html=1;jettySize=auto;orthogonalLoop=1;fontSize=11;endArrow=block;endFill=0;endSize=8;strokeWidth=1;shadow=0;labelBackgroundColor=none;edgeStyle=orthogonalEdgeStyle;exitX=0.5;exitY=1;exitDx=0;exitDy=0;entryX=0.5;entryY=0;entryDx=0;entryDy=0;" parent="WIyWlLk6GJQsqaUBKTNV-1" source="SCx97nsvygvDcEJ_W3Nr-16" target="WIyWlLk6GJQsqaUBKTNV-6" edge="1">
          <mxGeometry relative="1" as="geometry">
            <mxPoint x="446" y="140" as="sourcePoint" />
            <mxPoint x="320" y="270" as="targetPoint" />
            <Array as="points" />
          </mxGeometry>
        </mxCell>
        <mxCell id="SCx97nsvygvDcEJ_W3Nr-23" value="" style="rounded=0;html=1;jettySize=auto;orthogonalLoop=1;fontSize=11;endArrow=block;endFill=0;endSize=8;strokeWidth=1;shadow=0;labelBackgroundColor=none;edgeStyle=orthogonalEdgeStyle;entryX=0.5;entryY=0;entryDx=0;entryDy=0;exitX=0.49;exitY=0.983;exitDx=0;exitDy=0;exitPerimeter=0;" parent="WIyWlLk6GJQsqaUBKTNV-1" source="WIyWlLk6GJQsqaUBKTNV-6" edge="1">
          <mxGeometry relative="1" as="geometry">
            <mxPoint x="432" y="340" as="sourcePoint" />
            <mxPoint x="436" y="390" as="targetPoint" />
            <Array as="points">
              <mxPoint x="435" y="340" />
              <mxPoint x="436" y="340" />
            </Array>
          </mxGeometry>
        </mxCell>
        <mxCell id="SCx97nsvygvDcEJ_W3Nr-24" value="" style="rounded=0;html=1;jettySize=auto;orthogonalLoop=1;fontSize=11;endArrow=block;endFill=0;endSize=8;strokeWidth=1;shadow=0;labelBackgroundColor=none;edgeStyle=orthogonalEdgeStyle;entryX=0.5;entryY=0;entryDx=0;entryDy=0;exitX=0.5;exitY=1;exitDx=0;exitDy=0;" parent="WIyWlLk6GJQsqaUBKTNV-1" source="SCx97nsvygvDcEJ_W3Nr-21" target="N_SWZn74Nz-Q_obUlbYK-0" edge="1">
          <mxGeometry relative="1" as="geometry">
            <mxPoint x="507" y="490" as="sourcePoint" />
            <mxPoint x="317" y="600" as="targetPoint" />
            <Array as="points">
              <mxPoint x="497" y="560" />
              <mxPoint x="317" y="560" />
            </Array>
          </mxGeometry>
        </mxCell>
        <mxCell id="SCx97nsvygvDcEJ_W3Nr-26" value="" style="rounded=0;html=1;jettySize=auto;orthogonalLoop=1;fontSize=11;endArrow=block;endFill=0;endSize=8;strokeWidth=1;shadow=0;labelBackgroundColor=none;edgeStyle=orthogonalEdgeStyle;exitX=0.5;exitY=1;exitDx=0;exitDy=0;entryX=0.5;entryY=0;entryDx=0;entryDy=0;" parent="WIyWlLk6GJQsqaUBKTNV-1" source="SCx97nsvygvDcEJ_W3Nr-21" target="N_SWZn74Nz-Q_obUlbYK-1" edge="1">
          <mxGeometry relative="1" as="geometry">
            <mxPoint x="507" y="560" as="sourcePoint" />
            <mxPoint x="437" y="600" as="targetPoint" />
            <Array as="points">
              <mxPoint x="497" y="560" />
              <mxPoint x="437" y="560" />
            </Array>
          </mxGeometry>
        </mxCell>
        <mxCell id="SCx97nsvygvDcEJ_W3Nr-27" value="" style="rounded=0;html=1;jettySize=auto;orthogonalLoop=1;fontSize=11;endArrow=block;endFill=0;endSize=8;strokeWidth=1;shadow=0;labelBackgroundColor=none;edgeStyle=orthogonalEdgeStyle;entryX=0.5;entryY=0;entryDx=0;entryDy=0;" parent="WIyWlLk6GJQsqaUBKTNV-1" target="N_SWZn74Nz-Q_obUlbYK-2" edge="1">
          <mxGeometry relative="1" as="geometry">
            <mxPoint x="500" y="560" as="sourcePoint" />
            <mxPoint x="559" y="610" as="targetPoint" />
            <Array as="points">
              <mxPoint x="498" y="560" />
              <mxPoint x="558" y="560" />
            </Array>
          </mxGeometry>
        </mxCell>
        <mxCell id="SCx97nsvygvDcEJ_W3Nr-28" value="" style="rounded=0;html=1;jettySize=auto;orthogonalLoop=1;fontSize=11;endArrow=block;endFill=0;endSize=8;strokeWidth=1;shadow=0;labelBackgroundColor=none;edgeStyle=orthogonalEdgeStyle;exitX=0.5;exitY=1;exitDx=0;exitDy=0;" parent="WIyWlLk6GJQsqaUBKTNV-1" target="N_SWZn74Nz-Q_obUlbYK-5" edge="1">
          <mxGeometry relative="1" as="geometry">
            <mxPoint x="437" y="550" as="sourcePoint" />
            <mxPoint x="679" y="620" as="targetPoint" />
            <Array as="points">
              <mxPoint x="437" y="560" />
              <mxPoint x="677" y="560" />
            </Array>
          </mxGeometry>
        </mxCell>
        <mxCell id="SCx97nsvygvDcEJ_W3Nr-33" value="" style="endArrow=none;html=1;rounded=0;" parent="WIyWlLk6GJQsqaUBKTNV-1" edge="1">
          <mxGeometry width="50" height="50" relative="1" as="geometry">
            <mxPoint x="268" y="690" as="sourcePoint" />
            <mxPoint x="438" y="690" as="targetPoint" />
          </mxGeometry>
        </mxCell>
        <mxCell id="SCx97nsvygvDcEJ_W3Nr-34" value="" style="endArrow=none;html=1;rounded=0;entryX=0.5;entryY=1;entryDx=0;entryDy=0;" parent="WIyWlLk6GJQsqaUBKTNV-1" target="N_SWZn74Nz-Q_obUlbYK-1" edge="1">
          <mxGeometry width="50" height="50" relative="1" as="geometry">
            <mxPoint x="438" y="690" as="sourcePoint" />
            <mxPoint x="438" y="680" as="targetPoint" />
          </mxGeometry>
        </mxCell>
        <mxCell id="SCx97nsvygvDcEJ_W3Nr-35" value="" style="endArrow=none;html=1;rounded=0;" parent="WIyWlLk6GJQsqaUBKTNV-1" edge="1">
          <mxGeometry width="50" height="50" relative="1" as="geometry">
            <mxPoint x="558" y="690" as="sourcePoint" />
            <mxPoint x="678" y="690" as="targetPoint" />
          </mxGeometry>
        </mxCell>
        <mxCell id="SCx97nsvygvDcEJ_W3Nr-36" value="" style="rounded=0;html=1;jettySize=auto;orthogonalLoop=1;fontSize=11;endArrow=block;endFill=0;endSize=8;strokeWidth=1;shadow=0;labelBackgroundColor=none;edgeStyle=orthogonalEdgeStyle;entryX=1;entryY=0.5;entryDx=0;entryDy=0;exitX=0.5;exitY=1;exitDx=0;exitDy=0;" parent="WIyWlLk6GJQsqaUBKTNV-1" target="SCx97nsvygvDcEJ_W3Nr-21" edge="1">
          <mxGeometry relative="1" as="geometry">
            <mxPoint x="677" y="660" as="sourcePoint" />
            <mxPoint x="512" y="535" as="targetPoint" />
            <Array as="points">
              <mxPoint x="677" y="690" />
              <mxPoint x="750" y="690" />
              <mxPoint x="750" y="535" />
            </Array>
          </mxGeometry>
        </mxCell>
        <mxCell id="SCx97nsvygvDcEJ_W3Nr-37" value="" style="endArrow=none;html=1;rounded=0;entryX=0.5;entryY=1;entryDx=0;entryDy=0;" parent="WIyWlLk6GJQsqaUBKTNV-1" target="N_SWZn74Nz-Q_obUlbYK-2" edge="1">
          <mxGeometry width="50" height="50" relative="1" as="geometry">
            <mxPoint x="558" y="690" as="sourcePoint" />
            <mxPoint x="557.9" y="678.7199999999999" as="targetPoint" />
          </mxGeometry>
        </mxCell>
        <mxCell id="N_SWZn74Nz-Q_obUlbYK-0" value="Creazione progetti" style="rounded=1;whiteSpace=wrap;html=1;fontSize=12;glass=0;strokeWidth=1;shadow=0;" parent="WIyWlLk6GJQsqaUBKTNV-1" vertex="1">
          <mxGeometry x="258" y="620" width="120" height="40" as="geometry" />
        </mxCell>
        <mxCell id="N_SWZn74Nz-Q_obUlbYK-1" value="Assegnare Task" style="rounded=1;whiteSpace=wrap;html=1;fontSize=12;glass=0;strokeWidth=1;shadow=0;" parent="WIyWlLk6GJQsqaUBKTNV-1" vertex="1">
          <mxGeometry x="378" y="620" width="120" height="40" as="geometry" />
        </mxCell>
        <mxCell id="N_SWZn74Nz-Q_obUlbYK-2" value="Filtrare Task" style="rounded=1;whiteSpace=wrap;html=1;fontSize=12;glass=0;strokeWidth=1;shadow=0;" parent="WIyWlLk6GJQsqaUBKTNV-1" vertex="1">
          <mxGeometry x="498" y="620" width="120" height="40" as="geometry" />
        </mxCell>
        <mxCell id="N_SWZn74Nz-Q_obUlbYK-5" value="Personalizzare Task" style="rounded=1;whiteSpace=wrap;html=1;fontSize=12;glass=0;strokeWidth=1;shadow=0;" parent="WIyWlLk6GJQsqaUBKTNV-1" vertex="1">
          <mxGeometry x="618" y="620" width="120" height="40" as="geometry" />
        </mxCell>
        <mxCell id="-htY1s0rjYqek_ZPAGyf-4" value="Creazione Team" style="rounded=1;whiteSpace=wrap;html=1;fontSize=12;glass=0;strokeWidth=1;shadow=0;" parent="WIyWlLk6GJQsqaUBKTNV-1" vertex="1">
          <mxGeometry x="138" y="620" width="120" height="40" as="geometry" />
        </mxCell>
        <mxCell id="-htY1s0rjYqek_ZPAGyf-5" value="" style="endArrow=none;html=1;rounded=0;entryX=0.5;entryY=1;entryDx=0;entryDy=0;" parent="WIyWlLk6GJQsqaUBKTNV-1" target="-htY1s0rjYqek_ZPAGyf-4" edge="1">
          <mxGeometry width="50" height="50" relative="1" as="geometry">
            <mxPoint x="198" y="690" as="sourcePoint" />
            <mxPoint x="238" y="750" as="targetPoint" />
          </mxGeometry>
        </mxCell>
        <mxCell id="-htY1s0rjYqek_ZPAGyf-6" value="" style="rounded=0;html=1;jettySize=auto;orthogonalLoop=1;fontSize=11;endArrow=block;endFill=0;endSize=8;strokeWidth=1;shadow=0;labelBackgroundColor=none;edgeStyle=orthogonalEdgeStyle;exitX=0.5;exitY=1;exitDx=0;exitDy=0;entryX=0.5;entryY=0;entryDx=0;entryDy=0;" parent="WIyWlLk6GJQsqaUBKTNV-1" target="-htY1s0rjYqek_ZPAGyf-4" edge="1">
          <mxGeometry relative="1" as="geometry">
            <mxPoint x="509" y="560" as="sourcePoint" />
            <mxPoint x="189" y="620" as="targetPoint" />
            <Array as="points">
              <mxPoint x="199" y="560" />
              <mxPoint x="199" y="610" />
              <mxPoint x="198" y="610" />
            </Array>
          </mxGeometry>
        </mxCell>
        <mxCell id="Kjo9jfAfDkjByv6qGiIL-1" value="" style="rounded=0;html=1;jettySize=auto;orthogonalLoop=1;fontSize=11;endArrow=block;endFill=0;endSize=8;strokeWidth=1;shadow=0;labelBackgroundColor=none;edgeStyle=orthogonalEdgeStyle;exitX=0.5;exitY=1;exitDx=0;exitDy=0;" parent="WIyWlLk6GJQsqaUBKTNV-1" source="WIyWlLk6GJQsqaUBKTNV-3" target="SCx97nsvygvDcEJ_W3Nr-21" edge="1">
          <mxGeometry relative="1" as="geometry">
            <mxPoint x="446" y="350" as="sourcePoint" />
            <mxPoint x="446" y="400" as="targetPoint" />
            <Array as="points">
              <mxPoint x="436" y="430" />
            </Array>
          </mxGeometry>
        </mxCell>
        <mxCell id="zyQExw4K-Xbyi_z6gno9-1" value="" style="rounded=0;html=1;jettySize=auto;orthogonalLoop=1;fontSize=11;endArrow=block;endFill=0;endSize=8;strokeWidth=1;shadow=0;labelBackgroundColor=none;edgeStyle=orthogonalEdgeStyle;exitX=0.5;exitY=1;exitDx=0;exitDy=0;entryX=0.017;entryY=0.5;entryDx=0;entryDy=0;entryPerimeter=0;" parent="WIyWlLk6GJQsqaUBKTNV-1" target="SCx97nsvygvDcEJ_W3Nr-21" edge="1">
          <mxGeometry relative="1" as="geometry">
            <mxPoint x="316.49" y="660" as="sourcePoint" />
            <mxPoint x="482.0000000000002" y="535" as="targetPoint" />
            <Array as="points">
              <mxPoint x="320" y="660" />
              <mxPoint x="320" y="690" />
              <mxPoint x="121" y="690" />
              <mxPoint x="121" y="535" />
            </Array>
          </mxGeometry>
        </mxCell>
        <mxCell id="SCx97nsvygvDcEJ_W3Nr-21" value="" style="rhombus;whiteSpace=wrap;html=1;" parent="WIyWlLk6GJQsqaUBKTNV-1" vertex="1">
          <mxGeometry x="421" y="520" width="30" height="30" as="geometry" />
        </mxCell>
        <mxCell id="QvFCMBHlCe7MFRZxBxHw-1" value="" style="rounded=0;html=1;jettySize=auto;orthogonalLoop=1;fontSize=11;endArrow=block;endFill=0;endSize=8;strokeWidth=1;shadow=0;labelBackgroundColor=none;edgeStyle=orthogonalEdgeStyle;" edge="1" parent="WIyWlLk6GJQsqaUBKTNV-1" source="SCx97nsvygvDcEJ_W3Nr-21">
          <mxGeometry relative="1" as="geometry">
            <mxPoint x="448" y="440" as="sourcePoint" />
            <mxPoint x="510" y="490" as="targetPoint" />
            <Array as="points">
              <mxPoint x="446" y="490" />
            </Array>
          </mxGeometry>
        </mxCell>
        <mxCell id="QvFCMBHlCe7MFRZxBxHw-2" value="Logout" style="rounded=1;whiteSpace=wrap;html=1;fontSize=12;glass=0;strokeWidth=1;shadow=0;" vertex="1" parent="WIyWlLk6GJQsqaUBKTNV-1">
          <mxGeometry x="510" y="470" width="120" height="40" as="geometry" />
        </mxCell>
        <mxCell id="QvFCMBHlCe7MFRZxBxHw-3" value="" style="endArrow=none;html=1;rounded=0;exitX=1;exitY=0.5;exitDx=0;exitDy=0;" edge="1" parent="WIyWlLk6GJQsqaUBKTNV-1" source="QvFCMBHlCe7MFRZxBxHw-2">
          <mxGeometry width="50" height="50" relative="1" as="geometry">
            <mxPoint x="730" y="490" as="sourcePoint" />
            <mxPoint x="690" y="490" as="targetPoint" />
          </mxGeometry>
        </mxCell>
        <mxCell id="QvFCMBHlCe7MFRZxBxHw-4" value="" style="ellipse;whiteSpace=wrap;html=1;aspect=fixed;fillColor=#000000;" vertex="1" parent="WIyWlLk6GJQsqaUBKTNV-1">
          <mxGeometry x="690" y="480" width="20" height="20" as="geometry" />
        </mxCell>
      </root>
    </mxGraphModel>
  </diagram>
</mxfile>
